<?xml version="1.0" encoding="UTF-8"?>
<svg id="Layer_1" xmlns="http://www.w3.org/2000/svg" version="1.1" viewBox="0 0 145 128">
  <!-- Generator: Adobe Illustrator 30.4.0, SVG Export Plug-In . SVG Version: 2.1.4 Build 226)  -->
  <defs>
    <style>
      .st0 {
        fill: #fff;
      }
    </style>
  </defs>
  <path class="st0" d="M5.82,39.48v83.06h133.44V39.48s-133.44,0-133.44,0ZM91.74,84.18l-28.78,20.96c-2.59,1.89-6.24.04-6.24-3.17v-41.92c0-3.21,3.64-5.06,6.24-3.17l28.78,20.96c2.15,1.57,2.15,4.78,0,6.35h0Z"/>
  <polygon class="st0" points="31.56 6 11.49 30.64 5.82 30.64 5.82 6 31.56 6"/>
  <polygon class="st0" points="60.14 6 40.08 30.64 24.73 30.64 44.8 6 60.14 6"/>
  <polygon class="st0" points="88.73 6 68.66 30.64 53.32 30.64 73.39 6 88.73 6"/>
  <polygon class="st0" points="117.31 6 97.25 30.64 81.9 30.64 101.97 6 117.31 6"/>
  <polygon class="st0" points="139.26 6 139.26 30.64 110.49 30.64 130.55 6 139.26 6"/>
</svg>